# xmcd
#
# Track frame offsets:
#	150
#	21476
#	43450
#	60298
#	79341
#	97323
#	114226
#	130599
#
# Disc length: 1917 seconds
#
# Revision: 0
# Processed by: cddbd v1.4PL0 Copyright (c) Steve Scherf et al.
# Submitted via: dBpowerAMP V4.0
#
DISCID=6a077b08
DTITLE=Woodleg Odd's - Woodeg Odd's
DYEAR=1900
DGENRE=Blues
TTITLE0=Starting over
TTITLE1=Times are changin`
TTITLE2=They don't feed you with lies
TTITLE3=I got blues
TTITLE4=Don't let it go
TTITLE5=Brublues
TTITLE6=Flip my mind
TTITLE7=Sugar freek
EXTD=
EXTT0=
EXTT1=
EXTT2=
EXTT3=
EXTT4=
EXTT5=
EXTT6=
EXTT7=
PLAYORDER=
